<svg id="visual" viewBox="0 0 960 540" width="960" height="540" xmlns="http://www.w3.org/2000/svg" xmlns:xlink="http://www.w3.org/1999/xlink" version="1.1"><path d="M0 190L14.5 198.2C29 206.3 58 222.7 87.2 207.3C116.3 192 145.7 145 174.8 145.8C204 146.7 233 195.3 262 192.7C291 190 320 136 349 127C378 118 407 154 436.2 160.3C465.3 166.7 494.7 143.3 523.8 147C553 150.7 582 181.3 611 191.2C640 201 669 190 698 193.5C727 197 756 215 785.2 220.5C814.3 226 843.7 219 872.8 203.7C902 188.3 931 164.7 945.5 152.8L960 141L960 0L945.5 0C931 0 902 0 872.8 0C843.7 0 814.3 0 785.2 0C756 0 727 0 698 0C669 0 640 0 611 0C582 0 553 0 523.8 0C494.7 0 465.3 0 436.2 0C407 0 378 0 349 0C320 0 291 0 262 0C233 0 204 0 174.8 0C145.7 0 116.3 0 87.2 0C58 0 29 0 14.5 0L0 0Z" fill="#662fb7"></path><path d="M0 309L14.5 312.5C29 316 58 323 87.2 306.8C116.3 290.7 145.7 251.3 174.8 246.8C204 242.3 233 272.7 262 269.8C291 267 320 231 349 232.8C378 234.7 407 274.3 436.2 278.8C465.3 283.3 494.7 252.7 523.8 251.8C553 251 582 280 611 291.8C640 303.7 669 298.3 698 293.8C727 289.3 756 285.7 785.2 282.8C814.3 280 843.7 278 872.8 267.2C902 256.3 931 236.7 945.5 226.8L960 217L960 139L945.5 150.8C931 162.7 902 186.3 872.8 201.7C843.7 217 814.3 224 785.2 218.5C756 213 727 195 698 191.5C669 188 640 199 611 189.2C582 179.3 553 148.7 523.8 145C494.7 141.3 465.3 164.7 436.2 158.3C407 152 378 116 349 125C320 134 291 188 262 190.7C233 193.3 204 144.7 174.8 143.8C145.7 143 116.3 190 87.2 205.3C58 220.7 29 204.3 14.5 196.2L0 188Z" fill="#7455c4"></path><path d="M0 444L14.5 444C29 444 58 444 87.2 439.5C116.3 435 145.7 426 174.8 423.3C204 420.7 233 424.3 262 419.8C291 415.3 320 402.7 349 405.3C378 408 407 426 436.2 420.5C465.3 415 494.7 386 523.8 382.3C553 378.7 582 400.3 611 408.5C640 416.7 669 411.3 698 410.5C727 409.7 756 413.3 785.2 406.2C814.3 399 843.7 381 872.8 378.3C902 375.7 931 388.3 945.5 394.7L960 401L960 215L945.5 224.8C931 234.7 902 254.3 872.8 265.2C843.7 276 814.3 278 785.2 280.8C756 283.7 727 287.3 698 291.8C669 296.3 640 301.7 611 289.8C582 278 553 249 523.8 249.8C494.7 250.7 465.3 281.3 436.2 276.8C407 272.3 378 232.7 349 230.8C320 229 291 265 262 267.8C233 270.7 204 240.3 174.8 244.8C145.7 249.3 116.3 288.7 87.2 304.8C58 321 29 314 14.5 310.5L0 307Z" fill="#8576cd"></path><path d="M0 509L14.5 505.3C29 501.7 58 494.3 87.2 488.8C116.3 483.3 145.7 479.7 174.8 478.8C204 478 233 480 262 481.8C291 483.7 320 485.3 349 488C378 490.7 407 494.3 436.2 489C465.3 483.7 494.7 469.3 523.8 463C553 456.7 582 458.3 611 466.3C640 474.3 669 488.7 698 491.3C727 494 756 485 785.2 479.7C814.3 474.3 843.7 472.7 872.8 476.3C902 480 931 489 945.5 493.5L960 498L960 399L945.5 392.7C931 386.3 902 373.7 872.8 376.3C843.7 379 814.3 397 785.2 404.2C756 411.3 727 407.7 698 408.5C669 409.3 640 414.7 611 406.5C582 398.3 553 376.7 523.8 380.3C494.7 384 465.3 413 436.2 418.5C407 424 378 406 349 403.3C320 400.7 291 413.3 262 417.8C233 422.3 204 418.7 174.8 421.3C145.7 424 116.3 433 87.2 437.5C58 442 29 442 14.5 442L0 442Z" fill="#9a95d4"></path><path d="M0 541L14.5 541C29 541 58 541 87.2 541C116.3 541 145.7 541 174.8 541C204 541 233 541 262 541C291 541 320 541 349 541C378 541 407 541 436.2 541C465.3 541 494.7 541 523.8 541C553 541 582 541 611 541C640 541 669 541 698 541C727 541 756 541 785.2 541C814.3 541 843.7 541 872.8 541C902 541 931 541 945.5 541L960 541L960 496L945.5 491.5C931 487 902 478 872.8 474.3C843.7 470.7 814.3 472.3 785.2 477.7C756 483 727 492 698 489.3C669 486.7 640 472.3 611 464.3C582 456.3 553 454.7 523.8 461C494.7 467.3 465.3 481.7 436.2 487C407 492.3 378 488.7 349 486C320 483.3 291 481.7 262 479.8C233 478 204 476 174.8 476.8C145.7 477.7 116.3 481.3 87.2 486.8C58 492.3 29 499.7 14.5 503.3L0 507Z" fill="#b3b3d8"></path></svg>