<?xml version="1.0" standalone="no"?>
<svg xmlns:xlink="http://www.w3.org/1999/xlink" id="wave" style="transform:rotate(0deg); transition: 0.3s" viewBox="0 0 1440 490" version="1.1" xmlns="http://www.w3.org/2000/svg"><defs><linearGradient id="sw-gradient-0" x1="0" x2="0" y1="1" y2="0"><stop stop-color="rgba(0, 0, 0, 1)" offset="0%"/><stop stop-color="rgba(109.606, 106.221, 98.738, 1)" offset="100%"/></linearGradient></defs><path style="transform:translate(0, 0px); opacity:1" fill="url(#sw-gradient-0)" d="M0,98L40,81.7C80,65,160,33,240,65.3C320,98,400,196,480,196C560,196,640,98,720,89.8C800,82,880,163,960,163.3C1040,163,1120,82,1200,106.2C1280,131,1360,261,1440,269.5C1520,278,1600,163,1680,147C1760,131,1840,212,1920,212.3C2000,212,2080,131,2160,106.2C2240,82,2320,114,2400,147C2480,180,2560,212,2640,253.2C2720,294,2800,343,2880,375.7C2960,408,3040,425,3120,392C3200,359,3280,278,3360,269.5C3440,261,3520,327,3600,367.5C3680,408,3760,425,3840,359.3C3920,294,4000,147,4080,130.7C4160,114,4240,229,4320,253.2C4400,278,4480,212,4560,196C4640,180,4720,212,4800,196C4880,180,4960,114,5040,106.2C5120,98,5200,147,5280,171.5C5360,196,5440,196,5520,236.8C5600,278,5680,359,5720,400.2L5760,441L5760,490L5720,490C5680,490,5600,490,5520,490C5440,490,5360,490,5280,490C5200,490,5120,490,5040,490C4960,490,4880,490,4800,490C4720,490,4640,490,4560,490C4480,490,4400,490,4320,490C4240,490,4160,490,4080,490C4000,490,3920,490,3840,490C3760,490,3680,490,3600,490C3520,490,3440,490,3360,490C3280,490,3200,490,3120,490C3040,490,2960,490,2880,490C2800,490,2720,490,2640,490C2560,490,2480,490,2400,490C2320,490,2240,490,2160,490C2080,490,2000,490,1920,490C1840,490,1760,490,1680,490C1600,490,1520,490,1440,490C1360,490,1280,490,1200,490C1120,490,1040,490,960,490C880,490,800,490,720,490C640,490,560,490,480,490C400,490,320,490,240,490C160,490,80,490,40,490L0,490Z"/><defs><linearGradient id="sw-gradient-1" x1="0" x2="0" y1="1" y2="0"><stop stop-color="rgba(98.222, 96.727, 96.246, 1)" offset="0%"/><stop stop-color="rgba(0, 0, 0, 1)" offset="100%"/></linearGradient></defs><path style="transform:translate(0, 50px); opacity:0.9" fill="url(#sw-gradient-1)" d="M0,98L40,122.5C80,147,160,196,240,236.8C320,278,400,310,480,269.5C560,229,640,114,720,57.2C800,0,880,0,960,32.7C1040,65,1120,131,1200,155.2C1280,180,1360,163,1440,196C1520,229,1600,310,1680,326.7C1760,343,1840,294,1920,285.8C2000,278,2080,310,2160,294C2240,278,2320,212,2400,163.3C2480,114,2560,82,2640,130.7C2720,180,2800,310,2880,334.8C2960,359,3040,278,3120,220.5C3200,163,3280,131,3360,106.2C3440,82,3520,65,3600,49C3680,33,3760,16,3840,49C3920,82,4000,163,4080,204.2C4160,245,4240,245,4320,253.2C4400,261,4480,278,4560,261.3C4640,245,4720,196,4800,220.5C4880,245,4960,343,5040,392C5120,441,5200,441,5280,424.7C5360,408,5440,376,5520,343C5600,310,5680,278,5720,261.3L5760,245L5760,490L5720,490C5680,490,5600,490,5520,490C5440,490,5360,490,5280,490C5200,490,5120,490,5040,490C4960,490,4880,490,4800,490C4720,490,4640,490,4560,490C4480,490,4400,490,4320,490C4240,490,4160,490,4080,490C4000,490,3920,490,3840,490C3760,490,3680,490,3600,490C3520,490,3440,490,3360,490C3280,490,3200,490,3120,490C3040,490,2960,490,2880,490C2800,490,2720,490,2640,490C2560,490,2480,490,2400,490C2320,490,2240,490,2160,490C2080,490,2000,490,1920,490C1840,490,1760,490,1680,490C1600,490,1520,490,1440,490C1360,490,1280,490,1200,490C1120,490,1040,490,960,490C880,490,800,490,720,490C640,490,560,490,480,490C400,490,320,490,240,490C160,490,80,490,40,490L0,490Z"/><defs><linearGradient id="sw-gradient-2" x1="0" x2="0" y1="1" y2="0"><stop stop-color="rgba(255, 255, 255, 1)" offset="0%"/><stop stop-color="rgba(150.588, 150.588, 150.588, 1)" offset="100%"/></linearGradient></defs><path style="transform:translate(0, 100px); opacity:0.8" fill="url(#sw-gradient-2)" d="M0,294L40,285.8C80,278,160,261,240,220.5C320,180,400,114,480,73.5C560,33,640,16,720,49C800,82,880,163,960,212.3C1040,261,1120,278,1200,261.3C1280,245,1360,196,1440,163.3C1520,131,1600,114,1680,163.3C1760,212,1840,327,1920,343C2000,359,2080,278,2160,236.8C2240,196,2320,196,2400,228.7C2480,261,2560,327,2640,326.7C2720,327,2800,261,2880,253.2C2960,245,3040,294,3120,261.3C3200,229,3280,114,3360,73.5C3440,33,3520,65,3600,81.7C3680,98,3760,98,3840,155.2C3920,212,4000,327,4080,326.7C4160,327,4240,212,4320,155.2C4400,98,4480,98,4560,122.5C4640,147,4720,196,4800,196C4880,196,4960,147,5040,106.2C5120,65,5200,33,5280,65.3C5360,98,5440,196,5520,245C5600,294,5680,294,5720,294L5760,294L5760,490L5720,490C5680,490,5600,490,5520,490C5440,490,5360,490,5280,490C5200,490,5120,490,5040,490C4960,490,4880,490,4800,490C4720,490,4640,490,4560,490C4480,490,4400,490,4320,490C4240,490,4160,490,4080,490C4000,490,3920,490,3840,490C3760,490,3680,490,3600,490C3520,490,3440,490,3360,490C3280,490,3200,490,3120,490C3040,490,2960,490,2880,490C2800,490,2720,490,2640,490C2560,490,2480,490,2400,490C2320,490,2240,490,2160,490C2080,490,2000,490,1920,490C1840,490,1760,490,1680,490C1600,490,1520,490,1440,490C1360,490,1280,490,1200,490C1120,490,1040,490,960,490C880,490,800,490,720,490C640,490,560,490,480,490C400,490,320,490,240,490C160,490,80,490,40,490L0,490Z"/></svg>